<svg width="56" height="56" viewBox="0 0 56 56" fill="none" xmlns="http://www.w3.org/2000/svg">
<path d="M10.2306 30.9594C7.08563 19.2364 10.3843 17.1884 20.9972 6.54448C32.3324 12.9371 38.1787 13.2137 41.3237 24.9367C44.4686 36.6598 42.484 43.6061 31.948 47.3646C18.707 48.2117 13.3755 42.6824 10.2306 30.9594Z" fill="url(#paint0_radial_467_10)"/>
<path d="M16.9251 27.006C20.5723 15.5281 24.6106 15.1879 39.8263 10.5938C46.3405 21.0152 51.3563 23.7834 47.7091 35.2614C44.0619 46.7394 38.4996 51.8755 27.1267 50.5606C14.9589 45.5626 13.2779 38.484 16.9251 27.006Z" fill="url(#paint1_radial_467_10)"/>
<defs>
<radialGradient id="paint0_radial_467_10" cx="0" cy="0" r="1" gradientUnits="userSpaceOnUse" gradientTransform="translate(25.5581 27.1317) rotate(-105.017) scale(21.1317 15.7959)">
<stop stop-color="#5562EB"/>
<stop offset="1" stop-color="#21214B"/>
</radialGradient>
<radialGradient id="paint1_radial_467_10" cx="0" cy="0" r="1" gradientUnits="userSpaceOnUse" gradientTransform="translate(32.5711 30.3344) rotate(-72.3721) scale(20.968 15.9193)">
<stop stop-color="#5562EB"/>
<stop offset="1" stop-color="#21214B"/>
</radialGradient>
</defs>
</svg>
